<mxfile host="app.diagrams.net" agent="Mozilla/5.0 (Windows NT 10.0; Win64; x64) AppleWebKit/537.36 (KHTML, like Gecko) Chrome/131.0.0.0 Safari/537.36" version="25.0.3">
  <diagram name="Page-1" id="lCKK0SYmYycJSSmMypmF">
    <mxGraphModel dx="1562" dy="818" grid="1" gridSize="10" guides="1" tooltips="1" connect="1" arrows="1" fold="1" page="1" pageScale="1" pageWidth="850" pageHeight="1100" math="0" shadow="0">
      <root>
        <mxCell id="0" />
        <mxCell id="1" parent="0" />
        <mxCell id="tOVqJOseBS--4NqwXfb2-4" style="edgeStyle=orthogonalEdgeStyle;rounded=0;orthogonalLoop=1;jettySize=auto;html=1;exitX=0.5;exitY=1;exitDx=0;exitDy=0;entryX=0.5;entryY=0;entryDx=0;entryDy=0;" parent="1" source="tOVqJOseBS--4NqwXfb2-1" target="tOVqJOseBS--4NqwXfb2-3" edge="1">
          <mxGeometry relative="1" as="geometry" />
        </mxCell>
        <mxCell id="tOVqJOseBS--4NqwXfb2-1" value="&lt;font style=&quot;font-size: 16px;&quot;&gt;Begin heartbeat thread&lt;/font&gt;" style="rounded=0;whiteSpace=wrap;html=1;" parent="1" vertex="1">
          <mxGeometry x="240" y="170" width="120" height="60" as="geometry" />
        </mxCell>
        <mxCell id="tOVqJOseBS--4NqwXfb2-5" style="edgeStyle=orthogonalEdgeStyle;rounded=0;orthogonalLoop=1;jettySize=auto;html=1;exitX=0.5;exitY=1;exitDx=0;exitDy=0;entryX=0.5;entryY=0;entryDx=0;entryDy=0;" parent="1" source="tOVqJOseBS--4NqwXfb2-2" target="tOVqJOseBS--4NqwXfb2-1" edge="1">
          <mxGeometry relative="1" as="geometry" />
        </mxCell>
        <mxCell id="tOVqJOseBS--4NqwXfb2-2" value="&lt;font style=&quot;font-size: 20px;&quot;&gt;START&lt;/font&gt;" style="ellipse;whiteSpace=wrap;html=1;" parent="1" vertex="1">
          <mxGeometry x="240" y="70" width="120" height="80" as="geometry" />
        </mxCell>
        <mxCell id="tOVqJOseBS--4NqwXfb2-7" style="edgeStyle=orthogonalEdgeStyle;rounded=0;orthogonalLoop=1;jettySize=auto;html=1;exitX=0.5;exitY=1;exitDx=0;exitDy=0;entryX=0.5;entryY=0;entryDx=0;entryDy=0;" parent="1" source="tOVqJOseBS--4NqwXfb2-3" target="tOVqJOseBS--4NqwXfb2-6" edge="1">
          <mxGeometry relative="1" as="geometry" />
        </mxCell>
        <mxCell id="tOVqJOseBS--4NqwXfb2-3" value="&lt;font style=&quot;font-size: 16px;&quot;&gt;Wait for &quot;HI&quot;&lt;/font&gt;" style="rounded=0;whiteSpace=wrap;html=1;" parent="1" vertex="1">
          <mxGeometry x="240" y="250" width="120" height="60" as="geometry" />
        </mxCell>
        <mxCell id="tOVqJOseBS--4NqwXfb2-9" style="edgeStyle=orthogonalEdgeStyle;rounded=0;orthogonalLoop=1;jettySize=auto;html=1;exitX=0.5;exitY=1;exitDx=0;exitDy=0;entryX=0.5;entryY=0;entryDx=0;entryDy=0;" parent="1" source="tOVqJOseBS--4NqwXfb2-6" target="tOVqJOseBS--4NqwXfb2-8" edge="1">
          <mxGeometry relative="1" as="geometry" />
        </mxCell>
        <mxCell id="tOVqJOseBS--4NqwXfb2-49" style="edgeStyle=orthogonalEdgeStyle;rounded=0;orthogonalLoop=1;jettySize=auto;html=1;exitX=1;exitY=0.5;exitDx=0;exitDy=0;" parent="1" source="tOVqJOseBS--4NqwXfb2-6" edge="1">
          <mxGeometry relative="1" as="geometry">
            <mxPoint x="610" y="360" as="targetPoint" />
          </mxGeometry>
        </mxCell>
        <mxCell id="tOVqJOseBS--4NqwXfb2-6" value="&lt;font style=&quot;font-size: 16px;&quot;&gt;Start control thread&lt;/font&gt;" style="rounded=0;whiteSpace=wrap;html=1;" parent="1" vertex="1">
          <mxGeometry x="240" y="330" width="120" height="60" as="geometry" />
        </mxCell>
        <mxCell id="tOVqJOseBS--4NqwXfb2-11" style="edgeStyle=orthogonalEdgeStyle;rounded=0;orthogonalLoop=1;jettySize=auto;html=1;exitX=0.5;exitY=1;exitDx=0;exitDy=0;entryX=0.5;entryY=0;entryDx=0;entryDy=0;" parent="1" source="tOVqJOseBS--4NqwXfb2-8" target="tOVqJOseBS--4NqwXfb2-10" edge="1">
          <mxGeometry relative="1" as="geometry" />
        </mxCell>
        <mxCell id="tOVqJOseBS--4NqwXfb2-50" style="edgeStyle=orthogonalEdgeStyle;rounded=0;orthogonalLoop=1;jettySize=auto;html=1;exitX=1;exitY=0.5;exitDx=0;exitDy=0;entryX=-0.004;entryY=0.044;entryDx=0;entryDy=0;entryPerimeter=0;" parent="1" source="tOVqJOseBS--4NqwXfb2-8" target="tOVqJOseBS--4NqwXfb2-39" edge="1">
          <mxGeometry relative="1" as="geometry">
            <mxPoint x="770" y="440" as="targetPoint" />
          </mxGeometry>
        </mxCell>
        <mxCell id="tOVqJOseBS--4NqwXfb2-8" value="&lt;font style=&quot;font-size: 16px;&quot;&gt;Start GStream thread&lt;/font&gt;" style="rounded=0;whiteSpace=wrap;html=1;" parent="1" vertex="1">
          <mxGeometry x="240" y="410" width="120" height="60" as="geometry" />
        </mxCell>
        <mxCell id="tOVqJOseBS--4NqwXfb2-15" style="edgeStyle=orthogonalEdgeStyle;rounded=0;orthogonalLoop=1;jettySize=auto;html=1;exitX=0.5;exitY=1;exitDx=0;exitDy=0;entryX=0.5;entryY=0;entryDx=0;entryDy=0;" parent="1" source="tOVqJOseBS--4NqwXfb2-10" edge="1">
          <mxGeometry relative="1" as="geometry">
            <mxPoint x="300" y="570" as="targetPoint" />
          </mxGeometry>
        </mxCell>
        <mxCell id="tOVqJOseBS--4NqwXfb2-10" value="&lt;font style=&quot;font-size: 16px;&quot;&gt;Update motors on control var&lt;/font&gt;" style="rounded=0;whiteSpace=wrap;html=1;" parent="1" vertex="1">
          <mxGeometry x="240" y="490" width="120" height="60" as="geometry" />
        </mxCell>
        <mxCell id="tOVqJOseBS--4NqwXfb2-19" value="&lt;font style=&quot;font-size: 16px;&quot;&gt;No&lt;/font&gt;" style="edgeStyle=orthogonalEdgeStyle;rounded=0;orthogonalLoop=1;jettySize=auto;html=1;exitX=1;exitY=0.5;exitDx=0;exitDy=0;entryX=1;entryY=0.5;entryDx=0;entryDy=0;" parent="1" source="tOVqJOseBS--4NqwXfb2-17" target="tOVqJOseBS--4NqwXfb2-10" edge="1">
          <mxGeometry x="-0.7241" relative="1" as="geometry">
            <Array as="points">
              <mxPoint x="400" y="605" />
              <mxPoint x="400" y="520" />
            </Array>
            <mxPoint as="offset" />
          </mxGeometry>
        </mxCell>
        <mxCell id="tOVqJOseBS--4NqwXfb2-22" value="&lt;font style=&quot;font-size: 16px;&quot;&gt;Yes&lt;/font&gt;" style="edgeStyle=orthogonalEdgeStyle;rounded=0;orthogonalLoop=1;jettySize=auto;html=1;exitX=0;exitY=0.5;exitDx=0;exitDy=0;entryX=1;entryY=0.5;entryDx=0;entryDy=0;" parent="1" source="tOVqJOseBS--4NqwXfb2-17" target="tOVqJOseBS--4NqwXfb2-21" edge="1">
          <mxGeometry relative="1" as="geometry">
            <mxPoint as="offset" />
          </mxGeometry>
        </mxCell>
        <mxCell id="tOVqJOseBS--4NqwXfb2-17" value="&lt;font style=&quot;font-size: 16px;&quot;&gt;Shutdown&lt;/font&gt;&lt;div&gt;&lt;font style=&quot;font-size: 16px;&quot;&gt;received?&lt;/font&gt;&lt;/div&gt;" style="rhombus;whiteSpace=wrap;html=1;" parent="1" vertex="1">
          <mxGeometry x="240" y="570" width="120" height="70" as="geometry" />
        </mxCell>
        <mxCell id="tOVqJOseBS--4NqwXfb2-23" style="edgeStyle=orthogonalEdgeStyle;rounded=0;orthogonalLoop=1;jettySize=auto;html=1;exitX=0.5;exitY=0;exitDx=0;exitDy=0;entryX=0;entryY=0.5;entryDx=0;entryDy=0;" parent="1" source="tOVqJOseBS--4NqwXfb2-21" target="tOVqJOseBS--4NqwXfb2-3" edge="1">
          <mxGeometry relative="1" as="geometry">
            <mxPoint x="130" y="280" as="targetPoint" />
          </mxGeometry>
        </mxCell>
        <mxCell id="tOVqJOseBS--4NqwXfb2-21" value="&lt;font style=&quot;font-size: 16px;&quot;&gt;Stop Control and GStream threads&lt;/font&gt;" style="rounded=0;whiteSpace=wrap;html=1;" parent="1" vertex="1">
          <mxGeometry x="70" y="575" width="120" height="60" as="geometry" />
        </mxCell>
        <mxCell id="tOVqJOseBS--4NqwXfb2-24" value="&lt;font style=&quot;font-size: 16px;&quot;&gt;&amp;lt; Heartbeat &amp;gt;&lt;/font&gt;" style="swimlane;whiteSpace=wrap;html=1;" parent="1" vertex="1">
          <mxGeometry x="450" y="190" width="140" height="460" as="geometry" />
        </mxCell>
        <mxCell id="tOVqJOseBS--4NqwXfb2-25" value="&lt;font style=&quot;font-size: 16px;&quot;&gt;&quot;IT&#39;S ME&quot;&lt;/font&gt;" style="text;html=1;align=center;verticalAlign=middle;resizable=0;points=[];autosize=1;strokeColor=none;fillColor=none;" parent="tOVqJOseBS--4NqwXfb2-24" vertex="1">
          <mxGeometry x="25" y="40" width="90" height="30" as="geometry" />
        </mxCell>
        <mxCell id="tOVqJOseBS--4NqwXfb2-26" value="&lt;font style=&quot;font-size: 16px;&quot;&gt;&quot;IT&#39;S ME&quot;&lt;/font&gt;" style="text;html=1;align=center;verticalAlign=middle;resizable=0;points=[];autosize=1;strokeColor=none;fillColor=none;" parent="tOVqJOseBS--4NqwXfb2-24" vertex="1">
          <mxGeometry x="25" y="70" width="90" height="30" as="geometry" />
        </mxCell>
        <mxCell id="tOVqJOseBS--4NqwXfb2-27" value="&lt;font style=&quot;font-size: 16px;&quot;&gt;&quot;IT&#39;S ME&quot;&lt;/font&gt;" style="text;html=1;align=center;verticalAlign=middle;resizable=0;points=[];autosize=1;strokeColor=none;fillColor=none;" parent="tOVqJOseBS--4NqwXfb2-24" vertex="1">
          <mxGeometry x="25" y="100" width="90" height="30" as="geometry" />
        </mxCell>
        <mxCell id="tOVqJOseBS--4NqwXfb2-29" value="&lt;font style=&quot;font-size: 20px;&quot;&gt;&lt;b style=&quot;&quot;&gt;...&lt;/b&gt;&lt;/font&gt;" style="text;html=1;align=center;verticalAlign=middle;resizable=0;points=[];autosize=1;strokeColor=none;fillColor=none;" parent="tOVqJOseBS--4NqwXfb2-24" vertex="1">
          <mxGeometry x="50" y="120" width="40" height="40" as="geometry" />
        </mxCell>
        <mxCell id="tOVqJOseBS--4NqwXfb2-31" value="&lt;font style=&quot;font-size: 16px;&quot;&gt;&amp;lt; Control &amp;gt;&lt;/font&gt;" style="swimlane;whiteSpace=wrap;html=1;" parent="1" vertex="1">
          <mxGeometry x="610" y="350" width="155" height="300" as="geometry" />
        </mxCell>
        <mxCell id="tOVqJOseBS--4NqwXfb2-37" value="&lt;font style=&quot;font-size: 16px;&quot;&gt;Set CONTROL&lt;/font&gt;&lt;div&gt;&lt;font style=&quot;font-size: 16px;&quot;&gt;to whatever control&lt;/font&gt;&lt;/div&gt;&lt;div&gt;&lt;font style=&quot;font-size: 16px;&quot;&gt;message we receive&lt;/font&gt;&lt;/div&gt;" style="text;html=1;align=center;verticalAlign=middle;resizable=0;points=[];autosize=1;strokeColor=none;fillColor=none;" parent="tOVqJOseBS--4NqwXfb2-31" vertex="1">
          <mxGeometry x="-7.5" y="120" width="170" height="70" as="geometry" />
        </mxCell>
        <mxCell id="tOVqJOseBS--4NqwXfb2-39" value="&lt;font style=&quot;font-size: 16px;&quot;&gt;&amp;lt; GStream &amp;gt;&lt;/font&gt;" style="swimlane;whiteSpace=wrap;html=1;" parent="1" vertex="1">
          <mxGeometry x="790" y="430" width="152.5" height="220" as="geometry" />
        </mxCell>
        <mxCell id="tOVqJOseBS--4NqwXfb2-40" value="&lt;font style=&quot;font-size: 16px;&quot;&gt;Send video feed to&lt;/font&gt;&lt;div&gt;&lt;font style=&quot;font-size: 16px;&quot;&gt;server in realtime&lt;/font&gt;&lt;/div&gt;" style="text;html=1;align=center;verticalAlign=middle;resizable=0;points=[];autosize=1;strokeColor=none;fillColor=none;" parent="tOVqJOseBS--4NqwXfb2-39" vertex="1">
          <mxGeometry x="-3.75" y="85" width="160" height="50" as="geometry" />
        </mxCell>
        <mxCell id="tOVqJOseBS--4NqwXfb2-47" value="&lt;font style=&quot;font-size: 16px;&quot;&gt;&amp;lt; Main &amp;gt;&lt;/font&gt;" style="swimlane;whiteSpace=wrap;html=1;" parent="1" vertex="1">
          <mxGeometry x="50" y="30" width="380" height="620" as="geometry" />
        </mxCell>
        <mxCell id="tOVqJOseBS--4NqwXfb2-48" style="edgeStyle=orthogonalEdgeStyle;rounded=0;orthogonalLoop=1;jettySize=auto;html=1;exitX=1;exitY=0.5;exitDx=0;exitDy=0;" parent="1" source="tOVqJOseBS--4NqwXfb2-1" edge="1">
          <mxGeometry relative="1" as="geometry">
            <mxPoint x="450" y="200" as="targetPoint" />
          </mxGeometry>
        </mxCell>
        <mxCell id="ZR7N2brsCp0cxNk4SphN-1" value="&lt;b&gt;&lt;font style=&quot;font-size: 45px;&quot;&gt;ROVER TASKS&lt;/font&gt;&lt;/b&gt;" style="text;html=1;align=right;verticalAlign=middle;whiteSpace=wrap;rounded=0;" parent="1" vertex="1">
          <mxGeometry x="455" y="30" width="487.5" height="30" as="geometry" />
        </mxCell>
      </root>
    </mxGraphModel>
  </diagram>
</mxfile>
